<?xml version="1.0" standalone="no"?>
<!DOCTYPE svg PUBLIC "-//W3C//DTD SVG 20010904//EN"
 "http://www.w3.org/TR/2001/REC-SVG-20010904/DTD/svg10.dtd">
<svg version="1.0" xmlns="http://www.w3.org/2000/svg"
 width="768.000000pt" height="768.000000pt" viewBox="0 0 768.000000 768.000000"
 preserveAspectRatio="xMidYMid meet">
<metadata>
Created by potrace 1.16, written by Peter Selinger 2001-2019
</metadata>
<g transform="translate(0.000000,768.000000) scale(0.100000,-0.100000)"
fill="#000000" stroke="none">
<path d="M3520 7659 c-347 -31 -642 -96 -990 -218 -237 -82 -585 -258 -772
-388 -26 -18 -50 -33 -53 -33 -4 0 -90 -59 -120 -83 -5 -4 -37 -28 -70 -53
-194 -148 -441 -381 -580 -549 -32 -38 -62 -71 -67 -73 -4 -2 -8 -10 -8 -18 0
-8 -3 -14 -8 -14 -4 0 -28 -27 -52 -61 -25 -33 -50 -66 -55 -72 -19 -22 -85
-117 -85 -122 0 -3 -15 -27 -33 -53 -129 -185 -292 -508 -384 -762 -42 -114
-100 -299 -112 -355 -5 -22 -22 -101 -39 -175 -104 -477 -110 -1047 -15 -1525
42 -215 115 -476 171 -615 6 -14 20 -50 32 -80 27 -67 47 -115 65 -155 28 -62
123 -252 145 -290 13 -22 30 -53 39 -68 19 -34 27 -47 65 -107 211 -334 448
-605 789 -905 7 -6 32 -26 57 -45 25 -19 55 -44 68 -55 51 -44 292 -206 362
-244 25 -14 47 -28 50 -31 6 -8 21 -16 212 -111 84 -42 171 -84 193 -94 22 -9
49 -20 60 -25 87 -38 120 -50 134 -50 9 0 21 -4 26 -9 19 -17 328 -108 480
-140 322 -69 482 -84 875 -79 188 3 370 10 415 17 326 49 504 89 735 165 41
14 100 34 130 46 30 12 66 25 80 30 68 22 286 123 405 188 343 187 610 386
891 666 202 203 325 350 471 564 53 79 164 261 202 332 4 8 24 44 43 80 35 65
133 283 148 330 5 14 18 50 30 80 53 136 112 336 148 505 20 88 39 199 63 360
7 45 14 227 17 415 3 268 1 362 -12 470 -38 307 -89 541 -181 815 -41 122 -54
159 -91 245 -9 19 -19 44 -24 55 -8 19 -151 309 -179 363 -8 15 -17 29 -21 32
-3 3 -17 25 -31 50 -35 65 -238 364 -258 380 -4 3 -34 39 -67 80 -251 314
-610 625 -986 855 -150 92 -366 198 -558 275 -30 12 -66 26 -80 32 -47 19
-255 85 -320 102 -36 10 -87 23 -115 31 -27 7 -66 16 -85 20 -19 3 -64 12
-100 20 -92 19 -275 43 -417 55 -141 12 -496 11 -633 -1z m623 -404 c263 -22
463 -61 727 -142 181 -55 314 -110 515 -210 136 -68 140 -70 220 -118 27 -17
57 -34 67 -40 72 -41 274 -188 383 -279 91 -75 391 -380 454 -461 35 -44 71
-89 80 -101 10 -11 47 -63 82 -115 35 -52 67 -95 72 -97 4 -2 7 -8 7 -14 0 -5
15 -33 34 -61 134 -205 303 -593 372 -854 95 -356 124 -576 124 -933 0 -307
-29 -561 -91 -805 -6 -22 -17 -67 -26 -100 -24 -93 -101 -319 -134 -392 -10
-24 -19 -45 -19 -49 0 -16 -143 -294 -204 -397 -39 -65 -75 -126 -81 -135 -32
-54 -168 -237 -231 -312 -145 -170 -284 -309 -454 -454 -75 -63 -258 -199
-312 -231 -9 -5 -70 -42 -135 -81 -103 -61 -381 -204 -397 -204 -4 0 -25 -9
-49 -19 -40 -18 -155 -60 -277 -101 -83 -27 -258 -71 -375 -94 -392 -77 -907
-77 -1290 0 -268 54 -491 123 -735 228 -136 59 -316 153 -407 212 -28 19 -56
34 -61 34 -6 0 -12 3 -14 8 -2 4 -45 36 -97 71 -52 35 -104 72 -115 82 -12 9
-57 45 -101 80 -81 63 -386 363 -461 454 -91 109 -238 311 -279 383 -5 10 -23
40 -40 67 -48 80 -50 84 -118 220 -203 404 -314 796 -352 1242 -30 348 -10
673 61 1008 26 120 45 198 64 255 9 30 25 80 34 110 19 60 25 77 82 220 48
122 150 325 233 465 69 118 227 345 248 358 7 4 13 14 13 22 0 7 4 15 8 17 5
2 37 37 73 78 82 96 273 287 369 369 41 36 77 68 78 73 2 4 10 8 17 8 8 0 18
6 22 13 13 21 240 179 358 248 140 83 343 185 465 233 143 57 160 63 220 82
30 9 80 25 110 34 57 19 134 38 255 64 331 71 662 91 1008 61z"/>
<path d="M960 3840 l0 -1640 365 0 365 0 2 1233 3 1232 43 -135 c24 -74 52
-157 62 -185 16 -45 246 -745 304 -925 13 -41 28 -86 34 -100 5 -14 56 -167
112 -340 56 -173 108 -331 115 -350 25 -68 106 -315 116 -354 21 -82 -4 -76
313 -76 l284 0 5 22 c3 13 39 122 82 243 42 121 80 234 85 250 5 17 41 122 80
235 40 113 76 219 80 235 5 17 28 82 50 145 23 63 45 129 50 145 5 17 41 122
80 235 75 217 150 434 228 665 l47 140 3 -1157 2 -1158 23 -5 c12 -3 189 -4
392 -3 l370 3 3 703 2 702 665 0 665 0 0 -700 0 -700 370 0 370 0 -2 1638 -3
1637 -367 3 -368 2 0 -610 0 -610 -665 0 -665 0 0 610 0 610 -550 0 -550 0 -9
-22 c-4 -13 -14 -39 -20 -58 -7 -19 -35 -98 -62 -175 -28 -77 -56 -158 -64
-180 -7 -22 -30 -85 -50 -140 -20 -55 -42 -118 -50 -140 -13 -38 -52 -148
-165 -465 -28 -80 -60 -170 -71 -200 -11 -30 -30 -86 -44 -125 -13 -38 -36
-101 -50 -140 -14 -38 -30 -83 -35 -100 -5 -16 -24 -73 -43 -125 -19 -52 -44
-121 -55 -152 -20 -56 -41 -100 -42 -87 0 4 -16 51 -35 105 -20 55 -49 137
-65 184 -16 47 -45 130 -65 185 -20 55 -42 118 -50 140 -13 40 -94 269 -155
440 -17 50 -38 108 -45 130 -7 22 -30 85 -49 140 -20 55 -50 138 -66 185 -41
121 -85 244 -115 325 -15 39 -30 84 -35 100 -4 17 -20 61 -34 99 -14 38 -26
71 -26 72 0 2 -247 4 -550 4 l-550 0 0 -1640z"/>
</g>
</svg>
